<svg version="1.1" width="115.75" height="129.64" viewBox="0 0 115.75 129.64" xmlns="http://www.w3.org/2000/svg">
  <g transform="translate(-502.14 -406.45)">
    <path d="M 0,0 C 13.609,-11.295 40.599,0.265 56.52,17.348 H -12.194 C -9.559,9.111 -5.346,4.437 0,0" fill="#47423F" transform="matrix(1.3333333,0,0,-1.3333333,524.1308,530.09747)" />
    <path d="m 0,0 v -75.385 l 4.299,-0.003 c -1.976,6.175 -3.065,14.352 -3.072,25.944 v 0.237 c 0.017,27.053 5.913,35.527 15.266,43.291 20.034,16.628 69.097,-16.261 69.097,-43.41 0,-8.707 -5.06,-17.997 -12.576,-26.062 l 13.802,0.003 V 0 Z" fill="#47423F" transform="matrix(1.3333333,0,0,-1.3333333,502.13987,406.45)" />
  </g>
</svg>